<?xml version="1.0" encoding="utf-8"?>
<!-- Generator: Adobe Illustrator 23.0.0, SVG Export Plug-In . SVG Version: 6.00 Build 0)  -->
<svg version="1.1" id="Layer_1" xmlns="http://www.w3.org/2000/svg" xmlns:xlink="http://www.w3.org/1999/xlink" x="0px" y="0px"
	 viewBox="0 0 346 55" style="enable-background:new 0 0 346 55;" xml:space="preserve">
<style type="text/css">
	.st0{fill:#4E738A;}
	.st1{fill-rule:evenodd;clip-rule:evenodd;fill:#45647B;}
	.st2{fill:#C7D3DF;}
</style>
<g id="XMLID_2_">
	<path id="XMLID_4_" class="st0" d="M270.01,17.56c0-0.11,0-0.34,0-0.7c0-0.36,0-0.79,0.01-1.28s0.01-1.02,0.01-1.59
		c0-0.56,0-1.1,0-1.63s0-0.99,0-1.4c0-0.41,0-0.71,0-0.91h0.83c0,0.54,0,1.13,0,1.78c0,0.65,0,1.31,0.01,1.98
		c0,0.67,0.01,1.33,0.01,1.97c0,0.65,0,1.24,0,1.77H270.01z"/>
	<path id="XMLID_6_" class="st0" d="M276.39,15.5c0,0.34-0.06,0.64-0.19,0.91c-0.13,0.27-0.29,0.49-0.5,0.68
		c-0.21,0.18-0.45,0.32-0.73,0.42c-0.28,0.1-0.57,0.15-0.87,0.15c-0.46,0-0.87-0.07-1.21-0.2c-0.34-0.13-0.66-0.33-0.96-0.58
		l0.25-0.72c0.12,0.25,0.26,0.45,0.42,0.6c0.15,0.15,0.31,0.27,0.48,0.35c0.16,0.08,0.33,0.13,0.5,0.16
		c0.17,0.03,0.34,0.04,0.51,0.04c0.22,0,0.43-0.03,0.64-0.1c0.2-0.07,0.37-0.16,0.51-0.29c0.14-0.12,0.26-0.27,0.34-0.44
		c0.08-0.17,0.13-0.36,0.13-0.58c0-0.36-0.09-0.65-0.26-0.87c-0.17-0.22-0.39-0.41-0.65-0.58c-0.26-0.16-0.54-0.31-0.85-0.45
		c-0.31-0.14-0.59-0.3-0.85-0.48s-0.48-0.41-0.65-0.67c-0.17-0.26-0.26-0.6-0.26-1.02c0-0.3,0.06-0.57,0.19-0.81
		c0.12-0.24,0.29-0.43,0.48-0.58c0.2-0.15,0.42-0.27,0.66-0.35c0.25-0.08,0.49-0.12,0.73-0.12c0.3,0,0.62,0.05,0.94,0.14
		c0.32,0.09,0.58,0.23,0.76,0.41l-0.28,0.62c-0.11-0.19-0.22-0.34-0.33-0.45c-0.12-0.11-0.24-0.2-0.37-0.25
		c-0.13-0.06-0.26-0.09-0.38-0.11c-0.13-0.01-0.25-0.02-0.36-0.02c-0.18,0-0.35,0.02-0.52,0.07c-0.17,0.04-0.31,0.11-0.44,0.21
		c-0.13,0.09-0.23,0.22-0.31,0.37c-0.08,0.15-0.12,0.33-0.12,0.54c0,0.36,0.09,0.65,0.26,0.87c0.17,0.22,0.4,0.41,0.66,0.57
		c0.27,0.16,0.55,0.3,0.86,0.44c0.3,0.13,0.59,0.29,0.86,0.47c0.27,0.18,0.49,0.4,0.66,0.66C276.3,14.74,276.39,15.08,276.39,15.5z"
		/>
	<path id="XMLID_8_" class="st0" d="M280.13,10.36c0,0.54,0,1.11,0,1.73s0,1.24-0.01,1.87c-0.01,0.63-0.01,1.26-0.01,1.87
		s0,1.19,0,1.73h-0.83v-7.2h-2.62l0.08-0.31h6.14v0.31H280.13z"/>
	<path id="XMLID_10_" class="st0" d="M288.42,17.56c-0.12-0.37-0.28-0.78-0.46-1.25c-0.18-0.47-0.36-0.93-0.54-1.37h-2.99
		l-1.08,2.62h-0.33l3.15-7.62h0.09l0.09,0.28c0.03,0.08,0.06,0.17,0.09,0.26c0.04,0.09,0.07,0.18,0.09,0.25
		c0.24,0.61,0.5,1.25,0.79,1.94c0.29,0.69,0.56,1.35,0.83,1.99c0.27,0.64,0.51,1.21,0.73,1.73c0.22,0.51,0.39,0.9,0.5,1.17H288.42z
		 M287.28,14.6c-0.15-0.37-0.31-0.76-0.47-1.14c-0.16-0.39-0.3-0.75-0.43-1.08c-0.16-0.38-0.31-0.75-0.44-1.11v-0.15l-1.39,3.48
		H287.28z"/>
	<path id="XMLID_13_" class="st0" d="M296.12,17.69c-0.1-0.11-0.25-0.29-0.47-0.54c-0.21-0.25-0.46-0.54-0.74-0.87
		c-0.28-0.33-0.58-0.69-0.91-1.08c-0.32-0.39-0.65-0.78-0.97-1.17c-0.76-0.91-1.59-1.91-2.49-3l0.08,0.25v6.26h-0.36
		c0-0.1,0-0.3,0-0.61s0-0.67,0-1.1c0-0.42,0-0.88,0-1.38c0-0.5,0-0.98,0-1.47c0-0.48,0-0.93,0-1.35c0-0.42,0-0.76,0-1.03l-0.07-0.58
		h0.48c0.05,0.08,0.17,0.23,0.34,0.44c0.17,0.21,0.38,0.46,0.63,0.76c0.25,0.29,0.52,0.62,0.81,0.97c0.3,0.35,0.59,0.71,0.9,1.06
		c0.7,0.83,1.48,1.75,2.34,2.77l0.08,0.2c0-0.11,0-0.31,0-0.61s0-0.64,0-1.04c0-0.39,0-0.82-0.01-1.27
		c-0.01-0.46-0.01-0.89-0.01-1.31c0-0.42,0-0.8-0.01-1.15c0-0.35-0.01-0.62-0.01-0.82h0.36c0,0.54,0,1.13-0.01,1.79
		c-0.01,0.66-0.01,1.34-0.01,2.03s0,1.37,0,2.03C296.09,16.56,296.1,17.16,296.12,17.69z"/>
	<path id="XMLID_15_" class="st0" d="M302.29,15.39c0,0.37-0.07,0.7-0.22,0.97c-0.15,0.27-0.34,0.5-0.59,0.68
		c-0.25,0.18-0.53,0.31-0.84,0.39c-0.32,0.09-0.64,0.13-0.98,0.13h-2.06c0-0.11,0-0.34,0-0.7c0-0.36,0-0.79,0.01-1.28
		c0-0.49,0.01-1.02,0.01-1.59c0-0.57,0-1.11,0-1.63c0-0.52,0-0.98-0.01-1.4c0-0.41-0.01-0.72-0.01-0.92h2.1
		c0.33,0,0.62,0.05,0.88,0.14s0.47,0.22,0.64,0.38c0.17,0.16,0.31,0.35,0.4,0.56c0.09,0.21,0.14,0.43,0.14,0.65
		c0,0.19-0.04,0.38-0.11,0.57s-0.17,0.37-0.31,0.53c-0.13,0.16-0.3,0.3-0.49,0.41c-0.19,0.12-0.41,0.19-0.66,0.23
		c0.29,0.02,0.56,0.06,0.81,0.14c0.25,0.08,0.48,0.19,0.67,0.33c0.19,0.15,0.34,0.33,0.45,0.56
		C302.23,14.78,302.29,15.06,302.29,15.39z M301.35,15.54c0-0.61-0.17-1.05-0.52-1.35c-0.35-0.29-0.81-0.43-1.39-0.43
		c-0.17,0-0.34,0-0.51,0.01c-0.17,0-0.34,0.01-0.51,0.01c-0.01,0.21-0.01,0.5-0.01,0.88c0,0.38,0.01,0.77,0.01,1.15v1.42
		c0.37,0.04,0.74,0.05,1.09,0.03c0.35-0.01,0.66-0.08,0.94-0.19c0.27-0.12,0.49-0.29,0.66-0.54
		C301.27,16.29,301.35,15.96,301.35,15.54z M300.86,11.9c0-0.4-0.09-0.71-0.27-0.92c-0.18-0.21-0.4-0.37-0.66-0.47
		c-0.25-0.1-0.52-0.15-0.8-0.17c-0.28-0.01-0.51-0.02-0.71-0.02v3.24c0.86,0,1.48-0.12,1.86-0.37
		C300.66,12.94,300.86,12.51,300.86,11.9z"/>
	<path id="XMLID_19_" class="st0" d="M309.37,11.82c-0.01,0.65-0.02,1.31-0.03,1.98c-0.01,0.67-0.01,1.33-0.02,1.98
		c0,0.65,0,1.24,0.02,1.77h-0.68c0-0.04-0.01-0.11-0.02-0.23c-0.01-0.12-0.03-0.25-0.04-0.4c-0.01-0.15-0.03-0.3-0.04-0.47
		c-0.01-0.17-0.02-0.31-0.02-0.45c-0.1,0.19-0.21,0.38-0.34,0.58c-0.13,0.2-0.29,0.38-0.48,0.55s-0.42,0.31-0.68,0.41
		c-0.26,0.11-0.57,0.16-0.93,0.16c-0.45,0-0.86-0.07-1.22-0.21c-0.36-0.14-0.66-0.35-0.9-0.61c-0.25-0.26-0.43-0.58-0.56-0.94
		c-0.13-0.37-0.19-0.78-0.19-1.23v-4.66h0.87v4.7c0,0.35,0.05,0.67,0.14,0.96c0.09,0.29,0.23,0.55,0.41,0.76s0.41,0.38,0.68,0.51
		c0.27,0.12,0.59,0.19,0.94,0.19c0.35,0,0.66-0.06,0.95-0.19c0.29-0.13,0.53-0.31,0.72-0.53c0.2-0.22,0.35-0.48,0.45-0.78
		c0.11-0.3,0.16-0.62,0.16-0.96c0-0.37,0-0.8,0-1.27c0-0.47,0-0.93,0-1.38s0-0.85,0-1.22c0-0.37,0-0.63,0-0.79h0.82
		C309.38,10.59,309.38,11.18,309.37,11.82z"/>
	<path id="XMLID_21_" class="st0" d="M315.07,17.56h-4.34c0-0.11,0-0.34,0-0.7c0-0.36,0-0.79,0.01-1.28c0-0.5,0.01-1.02,0.01-1.59
		c0-0.56,0-1.1,0-1.63s0-0.99-0.01-1.4c-0.01-0.41-0.01-0.71-0.01-0.91h0.86v7.2h1.61c0.2,0,0.41,0,0.62,0c0.21,0,0.41,0,0.59-0.01
		c0.18-0.01,0.34-0.02,0.48-0.02c0.14,0,0.24-0.02,0.31-0.03L315.07,17.56z"/>
	<path id="XMLID_23_" class="st0" d="M274.7,26.27c0,0.37-0.07,0.7-0.22,0.97c-0.15,0.27-0.34,0.5-0.59,0.68
		c-0.25,0.18-0.53,0.31-0.84,0.39c-0.32,0.09-0.64,0.13-0.98,0.13h-2.06c0-0.11,0-0.34,0-0.7c0-0.36,0-0.79,0.01-1.28
		c0-0.49,0.01-1.02,0.01-1.59c0-0.57,0-1.11,0-1.63c0-0.52,0-0.98-0.01-1.4c0-0.41-0.01-0.72-0.01-0.92h2.1
		c0.33,0,0.62,0.05,0.88,0.14s0.47,0.22,0.64,0.38c0.17,0.16,0.31,0.35,0.4,0.56c0.09,0.21,0.14,0.43,0.14,0.65
		c0,0.19-0.04,0.38-0.11,0.57c-0.07,0.19-0.17,0.37-0.31,0.53c-0.13,0.16-0.3,0.3-0.49,0.41c-0.19,0.12-0.41,0.19-0.66,0.23
		c0.29,0.02,0.56,0.06,0.81,0.14c0.25,0.08,0.48,0.19,0.67,0.33c0.19,0.15,0.34,0.33,0.45,0.56
		C274.65,25.67,274.7,25.94,274.7,26.27z M273.77,26.42c0-0.61-0.17-1.05-0.52-1.35c-0.35-0.29-0.81-0.43-1.39-0.43
		c-0.17,0-0.34,0-0.51,0.01c-0.17,0-0.34,0.01-0.51,0.01c-0.01,0.21-0.01,0.5-0.01,0.88c0,0.38,0.01,0.77,0.01,1.15v1.42
		c0.38,0.04,0.74,0.05,1.09,0.03c0.35-0.01,0.66-0.08,0.94-0.19c0.27-0.12,0.49-0.29,0.66-0.54
		C273.68,27.17,273.77,26.84,273.77,26.42z M273.27,22.78c0-0.4-0.09-0.71-0.27-0.92c-0.18-0.21-0.4-0.37-0.66-0.47
		c-0.25-0.1-0.52-0.15-0.8-0.17c-0.28-0.01-0.51-0.02-0.71-0.02v3.24c0.86,0,1.48-0.12,1.86-0.37S273.27,23.4,273.27,22.78z"/>
	<path id="XMLID_27_" class="st0" d="M280.51,28.44c-0.12-0.37-0.28-0.78-0.46-1.25c-0.18-0.47-0.36-0.93-0.54-1.37h-2.99
		l-1.08,2.62h-0.33l3.15-7.62h0.09l0.09,0.28c0.03,0.08,0.06,0.17,0.09,0.26c0.04,0.09,0.07,0.18,0.09,0.25
		c0.24,0.61,0.5,1.25,0.79,1.94c0.29,0.69,0.56,1.35,0.83,1.99c0.27,0.64,0.51,1.21,0.73,1.73c0.22,0.51,0.39,0.9,0.5,1.17H280.51z
		 M279.37,25.48c-0.15-0.37-0.31-0.76-0.47-1.14c-0.16-0.39-0.3-0.75-0.43-1.08c-0.16-0.38-0.31-0.75-0.44-1.11v-0.15l-1.39,3.48
		H279.37z"/>
	<path id="XMLID_30_" class="st0" d="M283.14,22.61c-0.01,0.61-0.01,1.23-0.01,1.87c0.07-0.06,0.2-0.18,0.39-0.37
		c0.19-0.18,0.4-0.39,0.63-0.64c0.24-0.24,0.48-0.5,0.74-0.77c0.26-0.27,0.5-0.53,0.74-0.77c0.23-0.24,0.44-0.45,0.62-0.63
		c0.18-0.18,0.3-0.3,0.36-0.38h0.45c-0.19,0.19-0.42,0.43-0.71,0.72c-0.29,0.29-0.58,0.59-0.89,0.9c-0.31,0.31-0.61,0.62-0.9,0.91
		c-0.29,0.29-0.52,0.54-0.7,0.72c0.12,0.13,0.3,0.3,0.54,0.53s0.51,0.48,0.81,0.76c0.3,0.28,0.62,0.56,0.95,0.86
		c0.33,0.3,0.65,0.58,0.95,0.86c0.3,0.27,0.57,0.52,0.82,0.74c0.25,0.22,0.43,0.39,0.57,0.51h-1.19c-0.69-0.7-1.38-1.37-2.08-1.99
		c-0.7-0.62-1.4-1.27-2.09-1.96v3.95h-0.86c0-0.11,0-0.34,0-0.7c0-0.36,0-0.79,0.01-1.28c0-0.5,0.01-1.02,0.01-1.59
		c0-0.56,0-1.1,0-1.63s0-0.99,0-1.4c0-0.41,0-0.71,0-0.91h0.86C283.15,21.44,283.15,22,283.14,22.61z"/>
	<path id="XMLID_32_" class="st0" d="M294.98,22.71c-0.01,0.65-0.02,1.31-0.03,1.98c-0.01,0.67-0.01,1.33-0.02,1.98
		c0,0.65,0,1.24,0.02,1.77h-0.68c0-0.04-0.01-0.11-0.02-0.23c-0.01-0.12-0.03-0.25-0.04-0.4c-0.01-0.15-0.03-0.3-0.04-0.47
		c-0.01-0.17-0.02-0.31-0.02-0.45c-0.1,0.19-0.21,0.38-0.34,0.58c-0.13,0.2-0.29,0.38-0.48,0.55s-0.42,0.31-0.68,0.41
		c-0.26,0.11-0.57,0.16-0.93,0.16c-0.45,0-0.86-0.07-1.22-0.21c-0.36-0.14-0.66-0.35-0.9-0.61c-0.25-0.26-0.43-0.58-0.56-0.94
		c-0.13-0.37-0.19-0.78-0.19-1.23v-4.66h0.87v4.7c0,0.35,0.05,0.67,0.14,0.96c0.09,0.29,0.23,0.55,0.41,0.76s0.41,0.38,0.68,0.51
		c0.27,0.12,0.59,0.19,0.94,0.19c0.35,0,0.66-0.06,0.95-0.19c0.29-0.13,0.53-0.31,0.72-0.53c0.2-0.22,0.35-0.48,0.45-0.78
		c0.11-0.3,0.16-0.62,0.16-0.96c0-0.37,0-0.8,0-1.27c0-0.47,0-0.93,0-1.38s0-0.85,0-1.22c0-0.37,0-0.63,0-0.79H295
		C295,21.47,294.99,22.06,294.98,22.71z"/>
	<path id="XMLID_34_" class="st0" d="M273.93,37.27c0,0.34-0.06,0.64-0.19,0.91c-0.13,0.27-0.29,0.49-0.5,0.68
		c-0.21,0.18-0.45,0.32-0.73,0.42c-0.28,0.1-0.57,0.15-0.87,0.15c-0.46,0-0.87-0.07-1.21-0.2c-0.34-0.13-0.66-0.33-0.96-0.58
		l0.25-0.72c0.12,0.25,0.26,0.45,0.42,0.6c0.15,0.15,0.31,0.27,0.48,0.35c0.16,0.08,0.33,0.13,0.5,0.16
		c0.17,0.03,0.34,0.04,0.51,0.04c0.22,0,0.43-0.03,0.64-0.1c0.2-0.07,0.37-0.16,0.51-0.29c0.14-0.12,0.26-0.27,0.34-0.44
		c0.08-0.17,0.13-0.36,0.13-0.58c0-0.36-0.09-0.65-0.26-0.87c-0.17-0.22-0.39-0.41-0.65-0.58c-0.26-0.16-0.54-0.31-0.85-0.45
		c-0.31-0.14-0.59-0.3-0.85-0.48c-0.26-0.18-0.48-0.41-0.65-0.67s-0.26-0.6-0.26-1.02c0-0.3,0.06-0.57,0.19-0.81
		c0.12-0.24,0.29-0.43,0.48-0.58c0.2-0.15,0.42-0.27,0.66-0.35c0.25-0.08,0.49-0.12,0.73-0.12c0.3,0,0.62,0.05,0.94,0.14
		c0.32,0.09,0.58,0.23,0.76,0.41l-0.28,0.62c-0.11-0.19-0.22-0.34-0.33-0.45c-0.12-0.11-0.24-0.2-0.37-0.25
		c-0.13-0.06-0.26-0.09-0.38-0.11c-0.13-0.01-0.25-0.02-0.36-0.02c-0.18,0-0.35,0.02-0.52,0.07c-0.17,0.04-0.31,0.11-0.44,0.21
		c-0.13,0.09-0.23,0.22-0.31,0.37c-0.08,0.15-0.12,0.33-0.12,0.54c0,0.36,0.09,0.65,0.26,0.87c0.17,0.22,0.4,0.41,0.66,0.57
		c0.27,0.16,0.55,0.3,0.86,0.44c0.3,0.13,0.59,0.29,0.86,0.47c0.27,0.18,0.49,0.4,0.66,0.66C273.84,36.51,273.93,36.85,273.93,37.27
		z"/>
	<path id="XMLID_36_" class="st0" d="M279.68,39.33V35.7h-4c0,0.21,0,0.45,0,0.75s0,0.6,0.01,0.93c0,0.33,0.01,0.66,0.01,1
		c0,0.34,0,0.66,0,0.95h-0.83c0-0.11,0-0.34,0-0.7c0-0.36,0-0.79,0.01-1.28c0-0.49,0.01-1.02,0.01-1.59c0-0.57,0-1.11,0-1.63
		c0-0.52,0-0.98,0-1.4c0-0.41,0-0.72,0-0.92h0.82c0,0.27,0,0.56,0,0.88s0,0.64,0,0.96s0,0.63-0.01,0.93c0,0.3-0.01,0.56-0.01,0.78h4
		c0-0.26,0-0.57,0-0.92s0-0.71,0-1.06c0-0.35,0-0.67,0-0.96c0-0.29,0-0.49,0-0.62h0.84v7.51H279.68z"/>
	<path id="XMLID_38_" class="st0" d="M286.74,39.33c-0.12-0.37-0.28-0.78-0.46-1.25c-0.18-0.47-0.36-0.93-0.54-1.37h-2.99
		l-1.08,2.62h-0.33l3.15-7.62h0.09l0.09,0.28c0.03,0.08,0.06,0.17,0.09,0.26c0.04,0.09,0.07,0.18,0.09,0.25
		c0.24,0.61,0.5,1.25,0.79,1.94s0.56,1.35,0.83,1.99c0.27,0.64,0.51,1.21,0.73,1.73c0.22,0.51,0.39,0.9,0.5,1.17H286.74z
		 M285.6,36.37c-0.15-0.37-0.31-0.76-0.47-1.14c-0.16-0.39-0.3-0.75-0.43-1.08c-0.16-0.38-0.31-0.75-0.44-1.11v-0.15l-1.39,3.48
		H285.6z"/>
	<path id="XMLID_41_" class="st0" d="M294.43,39.46c-0.1-0.11-0.25-0.29-0.47-0.54c-0.21-0.25-0.46-0.54-0.74-0.87
		c-0.28-0.33-0.58-0.69-0.91-1.08c-0.32-0.39-0.65-0.78-0.97-1.17c-0.76-0.91-1.59-1.91-2.49-3l0.08,0.25v6.26h-0.36
		c0-0.1,0-0.3,0-0.61c0-0.31,0-0.67,0-1.1c0-0.42,0-0.88,0-1.38c0-0.5,0-0.98,0-1.47c0-0.48,0-0.93,0-1.35c0-0.42,0-0.76,0-1.03
		l-0.07-0.58h0.48c0.05,0.08,0.17,0.23,0.34,0.44c0.17,0.21,0.38,0.46,0.63,0.76c0.25,0.29,0.52,0.62,0.81,0.97
		c0.3,0.35,0.59,0.71,0.9,1.06c0.7,0.83,1.48,1.75,2.34,2.77l0.08,0.2c0-0.11,0-0.31,0-0.61c0-0.3,0-0.64,0-1.04
		c0-0.39,0-0.82-0.01-1.27c-0.01-0.46-0.01-0.89-0.01-1.31c0-0.42,0-0.8-0.01-1.15c0-0.35-0.01-0.62-0.01-0.82h0.36
		c0,0.54,0,1.13-0.01,1.79c-0.01,0.66-0.01,1.34-0.01,2.03c0,0.69,0,1.37,0,2.03C294.4,38.33,294.41,38.93,294.43,39.46z"/>
	<path id="XMLID_43_" class="st0" d="M301.35,39.06c-0.24,0.07-0.48,0.13-0.74,0.19c-0.25,0.05-0.5,0.1-0.74,0.13
		c-0.24,0.04-0.46,0.05-0.66,0.05c-0.49,0-0.97-0.08-1.45-0.23c-0.47-0.16-0.9-0.39-1.27-0.7c-0.38-0.31-0.68-0.7-0.91-1.17
		c-0.23-0.47-0.35-1.01-0.35-1.64c0-0.53,0.09-1.03,0.27-1.51c0.18-0.48,0.43-0.9,0.77-1.26c0.34-0.36,0.74-0.65,1.22-0.86
		c0.48-0.21,1.02-0.32,1.63-0.32c0.54,0,1.04,0.07,1.49,0.21c0.45,0.14,0.89,0.37,1.33,0.69l-0.27,0.71
		c-0.18-0.27-0.36-0.48-0.54-0.65s-0.37-0.29-0.57-0.38s-0.4-0.15-0.61-0.18c-0.21-0.03-0.43-0.05-0.65-0.05
		c-0.53,0-0.98,0.11-1.37,0.32c-0.39,0.21-0.71,0.49-0.97,0.84c-0.26,0.34-0.45,0.73-0.58,1.16c-0.13,0.43-0.19,0.86-0.19,1.28
		c0,0.54,0.08,1.02,0.25,1.45c0.17,0.43,0.4,0.79,0.69,1.08c0.3,0.29,0.64,0.52,1.04,0.68c0.4,0.16,0.84,0.24,1.31,0.24
		c0.26,0,0.53-0.05,0.81-0.14c0.28-0.09,0.56-0.2,0.82-0.33v-2.6h0.86v2.77C301.79,38.92,301.58,38.99,301.35,39.06z"/>
	<path id="XMLID_45_" class="st0" d="M307.99,39.33V35.7h-4c0,0.21,0,0.45,0,0.75s0,0.6,0.01,0.93c0,0.33,0.01,0.66,0.01,1
		c0,0.34,0,0.66,0,0.95h-0.83c0-0.11,0-0.34,0-0.7c0-0.36,0-0.79,0.01-1.28c0-0.49,0.01-1.02,0.01-1.59c0-0.57,0-1.11,0-1.63
		c0-0.52,0-0.98,0-1.4c0-0.41,0-0.72,0-0.92H304c0,0.27,0,0.56,0,0.88s0,0.64,0,0.96s0,0.63-0.01,0.93c0,0.3-0.01,0.56-0.01,0.78h4
		c0-0.26,0-0.57,0-0.92s0-0.71,0-1.06c0-0.35,0-0.67,0-0.96c0-0.29,0-0.49,0-0.62h0.84v7.51H307.99z"/>
	<path id="XMLID_47_" class="st0" d="M315.04,39.33c-0.12-0.37-0.28-0.78-0.46-1.25c-0.18-0.47-0.36-0.93-0.54-1.37h-2.99
		l-1.08,2.62h-0.33l3.15-7.62h0.09l0.09,0.28c0.03,0.08,0.06,0.17,0.09,0.26c0.04,0.09,0.07,0.18,0.09,0.25
		c0.24,0.61,0.5,1.25,0.79,1.94c0.29,0.69,0.56,1.35,0.83,1.99c0.27,0.64,0.51,1.21,0.73,1.73c0.22,0.51,0.39,0.9,0.5,1.17H315.04z
		 M313.9,36.37c-0.15-0.37-0.31-0.76-0.47-1.14c-0.16-0.39-0.3-0.75-0.43-1.08c-0.16-0.38-0.31-0.75-0.44-1.11v-0.15l-1.39,3.48
		H313.9z"/>
	<path id="XMLID_50_" class="st0" d="M316.94,39.33c0-0.11,0-0.34,0-0.7c0-0.36,0-0.79,0.01-1.28c0-0.5,0.01-1.02,0.01-1.59
		s0-1.1,0-1.63s0-0.99,0-1.4c0-0.41,0-0.71,0-0.91h0.83c0,0.54,0,1.13,0,1.78s0,1.31,0.01,1.98c0,0.67,0.01,1.33,0.01,1.97
		c0,0.65,0,1.24,0,1.77H316.94z"/>
</g>
<g>
	<g>
		<g>
			<path class="st1" d="M94.57,39.83c-0.19-5.85-0.05-14.12-0.05-19.69h-1.4c0.05,2.76,0.05,11.61,0.05,14.7
				c-1.65-1.84-11.85-13.2-13.06-14.7h-1.6l0.19,1.69c0.05,4.02,0,15.58,0,17.32h1.4V23.43C80.11,23.43,92.06,37.26,94.57,39.83z"/>
			<path class="st1" d="M105.52,21.98c-0.29-0.73-0.82-2.08-0.82-2.08h-0.53L95.7,39.15h1.35l2.85-6.48h7.55
				c0.92,2.18,1.94,4.59,2.66,6.48h3.05C111.8,36.2,108.08,27.93,105.52,21.98z M100.44,31.41l3.24-7.59
				c0.48,1.11,1.98,4.6,3.24,7.59H100.44z"/>
			<path class="st1" d="M75.89,39.83c-0.19-5.85-0.05-14.12-0.05-19.69h-1.4c0.05,2.76,0.05,11.61,0.05,14.7
				c-1.65-1.84-11.85-13.2-13.06-14.7h-1.6l0.19,1.69c0.05,4.02,0,15.58,0,17.32h1.4V23.43C61.43,23.43,73.38,37.26,75.89,39.83z"/>
			<path class="st1" d="M58.31,37.7c-1.64,0.24-8.22,0.24-9.53,0.24v-7.79c2.66-0.05,4.93,0,6.77,0.15l0.05-1.55
				c-1.93,0.24-5.56,0.19-6.77,0.44v-0.1v-0.24v-0.92v-2.76V21.4h0.82h2.42c1.79,0,3.77,0.05,4.88,0.19l-0.58-1.45H46.21v19.01
				h11.56L58.31,37.7z"/>
			<path class="st1" d="M42.8,39.43v-9.51h-2.94v8.91c-1.84,0.87-3.86,1.61-5.61,1.61c-6.52,0-11.3-4.5-11.3-11.86
				c0-5.84,3.45-12.36,10.66-12.36c3.08,0,5.74,0.64,8.13,4.32l0.92-2.44c-2.99-2.21-5.93-3.08-9.65-3.08
				c-8.27,0-13.33,6.3-13.33,13.56c0,8.55,6.94,12.87,13.65,12.87C36,41.45,40.32,40.44,42.8,39.43z"/>
		</g>
	</g>
	<path class="st2" d="M197.7,28.78c1.93-0.79,3.07-2.62,3.07-4.3c0-2.47-2.18-4.6-5.74-4.6h-5.84c0.05,3.17,0,17.51,0,19.44h5.74
		c3.61,0,7.22-1.68,7.22-5.69C202.15,30.61,200.17,29.22,197.7,28.78z M191.86,21.06c1.24,0,2.52-0.1,3.71,0.3
		c1.29,0.49,2.32,1.53,2.32,3.41c0,2.87-1.63,3.91-6.04,3.96C191.86,26.6,191.86,23.49,191.86,21.06z M191.86,37.98
		c0-1.09,0-6.23,0-8.21c0.84,0,1.63-0.05,2.47-0.05c2.97,0,4.85,1.39,4.85,4.25C199.18,37.88,195.87,38.33,191.86,37.98z"/>
	<g>
		<polygon class="st2" points="118.7,39.32 118.65,19.87 121.07,19.87 121.03,39.32 		"/>
	</g>
	<g>
		<path class="st2" d="M130.08,39.56c-2.52,0-4.3-0.74-6.04-2.13l0.89-2.47c1.53,2.87,3.41,3.22,5.1,3.22
			c2.37,0,4.06-1.34,4.06-3.27c0-1.98-1.34-2.97-2.82-3.76c-2.72-1.43-6.53-2.42-6.53-6.53c0-3.31,3.12-4.95,5.74-4.95
			c1.63,0,3.61,0.54,4.8,1.58l-1.04,2.13c-1.24-2.23-2.62-2.37-3.86-2.37c-1.78,0-3.46,0.84-3.46,2.72c0,1.98,1.38,2.97,2.87,3.71
			c2.77,1.39,6.63,2.28,6.63,6.43C136.41,37.49,133.34,39.56,130.08,39.56z"/>
	</g>
	<g>
		<path class="st2" d="M146.5,21.16c0,5.39,0,12.57,0,18.16h-2.72c0-1.88,0-13.65,0-18.16h-7.12l0.35-1.29c0,0,15.88,0,16.92,0v1.29
			H146.5z"/>
	</g>
	<path class="st2" d="M160.74,21.75c-0.3-0.74-0.84-2.13-0.84-2.13h-0.54l-8.66,19.69c0,0,0.44,0,1.38,0l2.92-6.63h7.72
		c0.94,2.23,1.98,4.7,2.72,6.63h3.12C167.18,36.3,163.37,27.84,160.74,21.75z M155.55,31.4l3.32-7.77c0.49,1.14,2.03,4.7,3.32,7.77
		H155.55z"/>
	<g>
		<path class="st2" d="M170.34,22.79l0.4-0.25l0.2,0.69c0,5.44,0,10.34,0,16.08h-1.43c0-1.78,0.05-13.61,0-17.71l-0.2-1.73h1.63
			c1.24,1.53,11.68,13.16,13.36,15.04c0-3.17,0-12.22-0.05-15.04h1.44c0,5.69-0.15,14.15,0.05,20.14
			C183.16,37.39,170.34,22.79,170.34,22.79z"/>
	</g>
	<g>
		<path class="st2" d="M220.56,39.32h-2.32c0-0.54-0.2-2.03-0.3-3.31c-1.09,1.73-2.87,3.71-6.33,3.71c-5,0-7.97-3.12-7.97-7.82
			V19.87c1.04,0,2.82,0,2.82,0l-0.05,12.12c0,3.36,2.03,5.84,5.64,5.84c3.66,0,5.94-2.62,5.94-5.94c0-3.76,0-10.19,0-12.02
			c0.99,0,2.67,0,2.67,0C220.65,25.56,220.41,33.68,220.56,39.32z"/>
	</g>
	<g>
		<path class="st2" d="M236.54,39.32h-11.92c0-1.93,0.05-16.28,0-19.44c0.99,0,2.62,0,2.62,0v18.21c1.34,0,8.16,0,9.85-0.25
			L236.54,39.32z"/>
	</g>
	<polygon class="st2" points="112.23,23.2 112.18,15.03 114.6,15.03 114.55,23.2 	"/>
</g>
</svg>
